<mxfile host="app.diagrams.net" agent="Mozilla/5.0 (Windows NT 10.0; Win64; x64) AppleWebKit/537.36 (KHTML, like Gecko) Chrome/119.0.0.0 Safari/537.36" version="25.0.3">
  <diagram name="Page-1" id="mvXdT9gkafeIQ9waUHdE">
    <mxGraphModel dx="1050" dy="565" grid="1" gridSize="10" guides="1" tooltips="1" connect="1" arrows="1" fold="1" page="1" pageScale="1" pageWidth="827" pageHeight="1169" math="0" shadow="0">
      <root>
        <mxCell id="0" />
        <mxCell id="1" parent="0" />
        <mxCell id="iz55yRVkYHEbIOxXmFII-1" value="&amp;lt;&amp;lt;HTML&amp;gt;&amp;gt;&lt;div&gt;&lt;b&gt;index.html&lt;/b&gt;&lt;/div&gt;" style="shape=module;align=left;spacingLeft=20;align=center;verticalAlign=top;whiteSpace=wrap;html=1;" vertex="1" parent="1">
          <mxGeometry x="180" y="100" width="100" height="50" as="geometry" />
        </mxCell>
        <mxCell id="iz55yRVkYHEbIOxXmFII-2" value="&amp;lt;&amp;lt;CSS&amp;gt;&amp;gt;&lt;br&gt;&lt;b&gt;reset.css&lt;/b&gt;" style="shape=module;align=left;spacingLeft=20;align=center;verticalAlign=top;whiteSpace=wrap;html=1;" vertex="1" parent="1">
          <mxGeometry x="420" y="100" width="100" height="50" as="geometry" />
        </mxCell>
        <mxCell id="iz55yRVkYHEbIOxXmFII-3" value="&amp;lt;&amp;lt;JavaScript&amp;gt;&amp;gt;&lt;div&gt;&lt;b&gt;React.js Komponente&lt;/b&gt;&lt;/div&gt;" style="shape=module;align=left;spacingLeft=20;align=center;verticalAlign=top;whiteSpace=wrap;html=1;" vertex="1" parent="1">
          <mxGeometry x="180" y="230" width="150" height="50" as="geometry" />
        </mxCell>
        <mxCell id="iz55yRVkYHEbIOxXmFII-4" value="&amp;lt;&amp;lt;CSS&amp;gt;&amp;gt;&lt;br&gt;&lt;b&gt;Moduli za komponente&lt;/b&gt;" style="shape=module;align=left;spacingLeft=20;align=center;verticalAlign=top;whiteSpace=wrap;html=1;" vertex="1" parent="1">
          <mxGeometry x="420" y="230" width="160" height="50" as="geometry" />
        </mxCell>
        <mxCell id="iz55yRVkYHEbIOxXmFII-7" value="" style="endArrow=open;endSize=12;dashed=1;html=1;rounded=0;exitX=1;exitY=0.5;exitDx=0;exitDy=0;entryX=0.14;entryY=0.516;entryDx=0;entryDy=0;entryPerimeter=0;" edge="1" parent="1" source="iz55yRVkYHEbIOxXmFII-1" target="iz55yRVkYHEbIOxXmFII-2">
          <mxGeometry width="160" relative="1" as="geometry">
            <mxPoint x="330" y="290" as="sourcePoint" />
            <mxPoint x="490" y="290" as="targetPoint" />
            <mxPoint as="offset" />
          </mxGeometry>
        </mxCell>
        <mxCell id="iz55yRVkYHEbIOxXmFII-8" value="" style="endArrow=open;endSize=12;dashed=1;html=1;rounded=0;exitX=0.5;exitY=1;exitDx=0;exitDy=0;entryX=0.344;entryY=0.044;entryDx=0;entryDy=0;entryPerimeter=0;" edge="1" parent="1" source="iz55yRVkYHEbIOxXmFII-1" target="iz55yRVkYHEbIOxXmFII-3">
          <mxGeometry width="160" relative="1" as="geometry">
            <mxPoint x="270" y="310" as="sourcePoint" />
            <mxPoint x="430" y="310" as="targetPoint" />
          </mxGeometry>
        </mxCell>
        <mxCell id="iz55yRVkYHEbIOxXmFII-9" value="" style="endArrow=open;endSize=12;dashed=1;html=1;rounded=0;exitX=1;exitY=0.5;exitDx=0;exitDy=0;entryX=0.072;entryY=0.508;entryDx=0;entryDy=0;entryPerimeter=0;" edge="1" parent="1" source="iz55yRVkYHEbIOxXmFII-3" target="iz55yRVkYHEbIOxXmFII-4">
          <mxGeometry width="160" relative="1" as="geometry">
            <mxPoint x="330" y="290" as="sourcePoint" />
            <mxPoint x="490" y="290" as="targetPoint" />
          </mxGeometry>
        </mxCell>
        <mxCell id="iz55yRVkYHEbIOxXmFII-10" value="&amp;lt;&amp;lt;JS&amp;gt;&amp;gt;&lt;br&gt;&lt;b&gt;UserController.js&lt;/b&gt;" style="shape=module;align=left;spacingLeft=20;align=center;verticalAlign=top;whiteSpace=wrap;html=1;" vertex="1" parent="1">
          <mxGeometry x="280" y="400" width="120" height="50" as="geometry" />
        </mxCell>
        <mxCell id="iz55yRVkYHEbIOxXmFII-11" value="&amp;lt;&amp;lt;JS&amp;gt;&amp;gt;&lt;br&gt;&lt;b&gt;MovieController.js&lt;/b&gt;" style="shape=module;align=left;spacingLeft=20;align=center;verticalAlign=top;whiteSpace=wrap;html=1;" vertex="1" parent="1">
          <mxGeometry x="280" y="480" width="130" height="50" as="geometry" />
        </mxCell>
        <mxCell id="iz55yRVkYHEbIOxXmFII-12" value="&amp;lt;&amp;lt;JS&amp;gt;&amp;gt;&lt;div&gt;&lt;b&gt;ProjectionController.js&lt;/b&gt;&lt;/div&gt;" style="shape=module;align=left;spacingLeft=20;align=center;verticalAlign=top;whiteSpace=wrap;html=1;" vertex="1" parent="1">
          <mxGeometry x="280" y="560" width="150" height="50" as="geometry" />
        </mxCell>
        <mxCell id="iz55yRVkYHEbIOxXmFII-13" value="&amp;lt;&amp;lt;JS&amp;gt;&amp;gt;&lt;div&gt;&lt;b&gt;ReservationController.js&lt;/b&gt;&lt;/div&gt;" style="shape=module;align=left;spacingLeft=20;align=center;verticalAlign=top;whiteSpace=wrap;html=1;" vertex="1" parent="1">
          <mxGeometry x="280" y="640" width="160" height="50" as="geometry" />
        </mxCell>
        <mxCell id="iz55yRVkYHEbIOxXmFII-14" value="&amp;lt;&amp;lt;JS&amp;gt;&amp;gt;&lt;br&gt;&lt;b&gt;UserService.js&lt;/b&gt;" style="shape=module;align=left;spacingLeft=20;align=center;verticalAlign=top;whiteSpace=wrap;html=1;" vertex="1" parent="1">
          <mxGeometry x="530" y="400" width="120" height="50" as="geometry" />
        </mxCell>
        <mxCell id="iz55yRVkYHEbIOxXmFII-15" value="&amp;lt;&amp;lt;JS&amp;gt;&amp;gt;&lt;div&gt;&lt;b&gt;FavoriteService.js&lt;/b&gt;&lt;/div&gt;" style="shape=module;align=left;spacingLeft=20;align=center;verticalAlign=top;whiteSpace=wrap;html=1;" vertex="1" parent="1">
          <mxGeometry x="530" y="720" width="130" height="50" as="geometry" />
        </mxCell>
        <mxCell id="iz55yRVkYHEbIOxXmFII-16" value="&amp;lt;&amp;lt;JS&amp;gt;&amp;gt;&lt;div&gt;&lt;b&gt;ReservationService.js&lt;/b&gt;&lt;/div&gt;" style="shape=module;align=left;spacingLeft=20;align=center;verticalAlign=top;whiteSpace=wrap;html=1;" vertex="1" parent="1">
          <mxGeometry x="530" y="640" width="140" height="50" as="geometry" />
        </mxCell>
        <mxCell id="iz55yRVkYHEbIOxXmFII-17" value="&amp;lt;&amp;lt;JS&amp;gt;&amp;gt;&lt;div&gt;&lt;b&gt;FavoriteController.js&lt;/b&gt;&lt;/div&gt;" style="shape=module;align=left;spacingLeft=20;align=center;verticalAlign=top;whiteSpace=wrap;html=1;" vertex="1" parent="1">
          <mxGeometry x="280" y="720" width="140" height="50" as="geometry" />
        </mxCell>
        <mxCell id="iz55yRVkYHEbIOxXmFII-18" value="&amp;lt;&amp;lt;JS&amp;gt;&amp;gt;&lt;div&gt;&lt;b&gt;ProjectionService.js&lt;/b&gt;&lt;/div&gt;" style="shape=module;align=left;spacingLeft=20;align=center;verticalAlign=top;whiteSpace=wrap;html=1;" vertex="1" parent="1">
          <mxGeometry x="535" y="560" width="130" height="50" as="geometry" />
        </mxCell>
        <mxCell id="iz55yRVkYHEbIOxXmFII-19" value="&amp;lt;&amp;lt;JS&amp;gt;&amp;gt;&lt;div&gt;&lt;b&gt;MovieService.js&lt;br&gt;&lt;/b&gt;&lt;div&gt;&lt;br&gt;&lt;/div&gt;&lt;/div&gt;" style="shape=module;align=left;spacingLeft=20;align=center;verticalAlign=top;whiteSpace=wrap;html=1;" vertex="1" parent="1">
          <mxGeometry x="530" y="480" width="120" height="50" as="geometry" />
        </mxCell>
        <mxCell id="iz55yRVkYHEbIOxXmFII-22" value="&amp;lt;&amp;lt;JS&amp;gt;&amp;gt;&lt;br&gt;&lt;b&gt;app.js&lt;/b&gt;" style="shape=module;align=left;spacingLeft=20;align=center;verticalAlign=top;whiteSpace=wrap;html=1;" vertex="1" parent="1">
          <mxGeometry x="90" y="560" width="100" height="50" as="geometry" />
        </mxCell>
        <mxCell id="iz55yRVkYHEbIOxXmFII-23" value="" style="endArrow=open;endSize=12;dashed=1;html=1;rounded=0;exitX=1;exitY=0.5;exitDx=0;exitDy=0;entryX=0.09;entryY=0.532;entryDx=0;entryDy=0;entryPerimeter=0;" edge="1" parent="1" source="iz55yRVkYHEbIOxXmFII-22" target="iz55yRVkYHEbIOxXmFII-10">
          <mxGeometry width="160" relative="1" as="geometry">
            <mxPoint x="330" y="640" as="sourcePoint" />
            <mxPoint x="490" y="640" as="targetPoint" />
          </mxGeometry>
        </mxCell>
        <mxCell id="iz55yRVkYHEbIOxXmFII-24" value="" style="endArrow=open;endSize=12;dashed=1;html=1;rounded=0;exitX=1;exitY=0.5;exitDx=0;exitDy=0;entryX=0.077;entryY=0.58;entryDx=0;entryDy=0;entryPerimeter=0;" edge="1" parent="1" source="iz55yRVkYHEbIOxXmFII-22" target="iz55yRVkYHEbIOxXmFII-11">
          <mxGeometry width="160" relative="1" as="geometry">
            <mxPoint x="200" y="595" as="sourcePoint" />
            <mxPoint x="301" y="437" as="targetPoint" />
          </mxGeometry>
        </mxCell>
        <mxCell id="iz55yRVkYHEbIOxXmFII-25" value="" style="endArrow=open;endSize=12;dashed=1;html=1;rounded=0;exitX=1;exitY=0.5;exitDx=0;exitDy=0;entryX=0.083;entryY=0.5;entryDx=0;entryDy=0;entryPerimeter=0;" edge="1" parent="1" source="iz55yRVkYHEbIOxXmFII-22" target="iz55yRVkYHEbIOxXmFII-12">
          <mxGeometry width="160" relative="1" as="geometry">
            <mxPoint x="200" y="595" as="sourcePoint" />
            <mxPoint x="299" y="519" as="targetPoint" />
          </mxGeometry>
        </mxCell>
        <mxCell id="iz55yRVkYHEbIOxXmFII-26" value="" style="endArrow=open;endSize=12;dashed=1;html=1;rounded=0;exitX=1;exitY=0.5;exitDx=0;exitDy=0;entryX=0.088;entryY=0.628;entryDx=0;entryDy=0;entryPerimeter=0;" edge="1" parent="1" source="iz55yRVkYHEbIOxXmFII-22" target="iz55yRVkYHEbIOxXmFII-13">
          <mxGeometry width="160" relative="1" as="geometry">
            <mxPoint x="200" y="595" as="sourcePoint" />
            <mxPoint x="302" y="595" as="targetPoint" />
          </mxGeometry>
        </mxCell>
        <mxCell id="iz55yRVkYHEbIOxXmFII-27" value="" style="endArrow=open;endSize=12;dashed=1;html=1;rounded=0;exitX=1;exitY=0.5;exitDx=0;exitDy=0;entryX=0.083;entryY=0.612;entryDx=0;entryDy=0;entryPerimeter=0;" edge="1" parent="1" source="iz55yRVkYHEbIOxXmFII-22" target="iz55yRVkYHEbIOxXmFII-17">
          <mxGeometry width="160" relative="1" as="geometry">
            <mxPoint x="200" y="595" as="sourcePoint" />
            <mxPoint x="303" y="681" as="targetPoint" />
          </mxGeometry>
        </mxCell>
        <mxCell id="iz55yRVkYHEbIOxXmFII-28" value="" style="endArrow=open;endSize=12;dashed=1;html=1;rounded=0;exitX=1;exitY=0.5;exitDx=0;exitDy=0;entryX=0.08;entryY=0.5;entryDx=0;entryDy=0;entryPerimeter=0;" edge="1" parent="1" source="iz55yRVkYHEbIOxXmFII-10" target="iz55yRVkYHEbIOxXmFII-14">
          <mxGeometry width="160" relative="1" as="geometry">
            <mxPoint x="460" y="518" as="sourcePoint" />
            <mxPoint x="561" y="360" as="targetPoint" />
          </mxGeometry>
        </mxCell>
        <mxCell id="iz55yRVkYHEbIOxXmFII-29" value="" style="endArrow=open;endSize=12;dashed=1;html=1;rounded=0;exitX=1;exitY=0.5;exitDx=0;exitDy=0;" edge="1" parent="1" source="iz55yRVkYHEbIOxXmFII-11">
          <mxGeometry width="160" relative="1" as="geometry">
            <mxPoint x="460" y="520" as="sourcePoint" />
            <mxPoint x="540" y="505" as="targetPoint" />
          </mxGeometry>
        </mxCell>
        <mxCell id="iz55yRVkYHEbIOxXmFII-30" value="" style="endArrow=open;endSize=12;dashed=1;html=1;rounded=0;exitX=1;exitY=0.5;exitDx=0;exitDy=0;entryX=0.092;entryY=0.532;entryDx=0;entryDy=0;entryPerimeter=0;" edge="1" parent="1" source="iz55yRVkYHEbIOxXmFII-12" target="iz55yRVkYHEbIOxXmFII-18">
          <mxGeometry width="160" relative="1" as="geometry">
            <mxPoint x="440" y="584.5" as="sourcePoint" />
            <mxPoint x="580" y="584.5" as="targetPoint" />
          </mxGeometry>
        </mxCell>
        <mxCell id="iz55yRVkYHEbIOxXmFII-31" value="" style="endArrow=open;endSize=12;dashed=1;html=1;rounded=0;exitX=1;exitY=0.5;exitDx=0;exitDy=0;" edge="1" parent="1" source="iz55yRVkYHEbIOxXmFII-13">
          <mxGeometry width="160" relative="1" as="geometry">
            <mxPoint x="453" y="664" as="sourcePoint" />
            <mxPoint x="540" y="666" as="targetPoint" />
          </mxGeometry>
        </mxCell>
        <mxCell id="iz55yRVkYHEbIOxXmFII-32" value="" style="endArrow=open;endSize=12;dashed=1;html=1;rounded=0;exitX=1;exitY=0.5;exitDx=0;exitDy=0;entryX=0.092;entryY=0.532;entryDx=0;entryDy=0;entryPerimeter=0;" edge="1" parent="1" source="iz55yRVkYHEbIOxXmFII-17" target="iz55yRVkYHEbIOxXmFII-15">
          <mxGeometry width="160" relative="1" as="geometry">
            <mxPoint x="430" y="760" as="sourcePoint" />
            <mxPoint x="540" y="761" as="targetPoint" />
          </mxGeometry>
        </mxCell>
        <mxCell id="iz55yRVkYHEbIOxXmFII-33" value="&amp;lt;&amp;lt;JS&amp;gt;&amp;gt;&lt;br&gt;&lt;b&gt;UserDataAccess.js&lt;/b&gt;" style="shape=module;align=left;spacingLeft=20;align=center;verticalAlign=top;whiteSpace=wrap;html=1;" vertex="1" parent="1">
          <mxGeometry x="310" y="870" width="130" height="50" as="geometry" />
        </mxCell>
        <mxCell id="iz55yRVkYHEbIOxXmFII-34" value="&amp;lt;&amp;lt;JS&amp;gt;&amp;gt;&lt;div&gt;&lt;b&gt;ReservationDataAcess.js&lt;/b&gt;&lt;br&gt;&lt;/div&gt;" style="shape=module;align=left;spacingLeft=20;align=center;verticalAlign=top;whiteSpace=wrap;html=1;" vertex="1" parent="1">
          <mxGeometry x="310" y="1190" width="170" height="50" as="geometry" />
        </mxCell>
        <mxCell id="iz55yRVkYHEbIOxXmFII-35" value="&amp;lt;&amp;lt;JS&amp;gt;&amp;gt;&lt;div&gt;&lt;b&gt;FavoriteData.js&lt;/b&gt;&lt;br&gt;&lt;/div&gt;" style="shape=module;align=left;spacingLeft=20;align=center;verticalAlign=top;whiteSpace=wrap;html=1;" vertex="1" parent="1">
          <mxGeometry x="309" y="950" width="121" height="50" as="geometry" />
        </mxCell>
        <mxCell id="iz55yRVkYHEbIOxXmFII-36" value="&amp;lt;&amp;lt;JS&amp;gt;&amp;gt;&lt;div&gt;&lt;b&gt;DBConfig.js&amp;nbsp;&lt;/b&gt;&lt;br&gt;&lt;/div&gt;" style="shape=module;align=left;spacingLeft=20;align=center;verticalAlign=top;whiteSpace=wrap;html=1;" vertex="1" parent="1">
          <mxGeometry x="30" y="1030" width="100" height="50" as="geometry" />
        </mxCell>
        <mxCell id="iz55yRVkYHEbIOxXmFII-37" value="&amp;lt;&amp;lt;JS&amp;gt;&amp;gt;&lt;div&gt;&lt;b&gt;MovieDataAccess.js&lt;/b&gt;&lt;br&gt;&lt;/div&gt;" style="shape=module;align=left;spacingLeft=20;align=center;verticalAlign=top;whiteSpace=wrap;html=1;" vertex="1" parent="1">
          <mxGeometry x="310" y="1030" width="140" height="50" as="geometry" />
        </mxCell>
        <mxCell id="iz55yRVkYHEbIOxXmFII-38" value="&amp;lt;&amp;lt;JS&amp;gt;&amp;gt;&lt;div&gt;&lt;b&gt;ProjectionDataAccess.js&lt;/b&gt;&lt;br&gt;&lt;/div&gt;" style="shape=module;align=left;spacingLeft=20;align=center;verticalAlign=top;whiteSpace=wrap;html=1;" vertex="1" parent="1">
          <mxGeometry x="310" y="1110" width="170" height="50" as="geometry" />
        </mxCell>
        <mxCell id="iz55yRVkYHEbIOxXmFII-41" style="edgeStyle=orthogonalEdgeStyle;rounded=0;orthogonalLoop=1;jettySize=auto;html=1;exitX=0.5;exitY=1;exitDx=0;exitDy=0;" edge="1" parent="1" source="iz55yRVkYHEbIOxXmFII-35" target="iz55yRVkYHEbIOxXmFII-35">
          <mxGeometry relative="1" as="geometry" />
        </mxCell>
        <mxCell id="iz55yRVkYHEbIOxXmFII-42" style="edgeStyle=orthogonalEdgeStyle;rounded=0;orthogonalLoop=1;jettySize=auto;html=1;exitX=0.5;exitY=1;exitDx=0;exitDy=0;" edge="1" parent="1" source="iz55yRVkYHEbIOxXmFII-36" target="iz55yRVkYHEbIOxXmFII-36">
          <mxGeometry relative="1" as="geometry" />
        </mxCell>
        <mxCell id="iz55yRVkYHEbIOxXmFII-52" value="" style="endArrow=open;endSize=12;dashed=1;html=1;rounded=0;exitX=1;exitY=0.5;exitDx=0;exitDy=0;entryX=0.086;entryY=0.572;entryDx=0;entryDy=0;entryPerimeter=0;" edge="1" parent="1" source="iz55yRVkYHEbIOxXmFII-36" target="iz55yRVkYHEbIOxXmFII-33">
          <mxGeometry width="160" relative="1" as="geometry">
            <mxPoint x="340" y="1040" as="sourcePoint" />
            <mxPoint x="500" y="1040" as="targetPoint" />
          </mxGeometry>
        </mxCell>
        <mxCell id="iz55yRVkYHEbIOxXmFII-53" value="" style="endArrow=open;endSize=12;dashed=1;html=1;rounded=0;exitX=1;exitY=0.5;exitDx=0;exitDy=0;entryX=0.074;entryY=0.556;entryDx=0;entryDy=0;entryPerimeter=0;" edge="1" parent="1" source="iz55yRVkYHEbIOxXmFII-36" target="iz55yRVkYHEbIOxXmFII-35">
          <mxGeometry width="160" relative="1" as="geometry">
            <mxPoint x="140" y="1065" as="sourcePoint" />
            <mxPoint x="331" y="909" as="targetPoint" />
          </mxGeometry>
        </mxCell>
        <mxCell id="iz55yRVkYHEbIOxXmFII-54" value="" style="endArrow=open;endSize=12;dashed=1;html=1;rounded=0;exitX=1;exitY=0.5;exitDx=0;exitDy=0;entryX=0.069;entryY=0.492;entryDx=0;entryDy=0;entryPerimeter=0;" edge="1" parent="1" source="iz55yRVkYHEbIOxXmFII-36" target="iz55yRVkYHEbIOxXmFII-37">
          <mxGeometry width="160" relative="1" as="geometry">
            <mxPoint x="140" y="1065" as="sourcePoint" />
            <mxPoint x="328" y="988" as="targetPoint" />
          </mxGeometry>
        </mxCell>
        <mxCell id="iz55yRVkYHEbIOxXmFII-55" value="" style="endArrow=open;endSize=12;dashed=1;html=1;rounded=0;exitX=1;exitY=0.5;exitDx=0;exitDy=0;entryX=0.071;entryY=0.604;entryDx=0;entryDy=0;entryPerimeter=0;" edge="1" parent="1" source="iz55yRVkYHEbIOxXmFII-36" target="iz55yRVkYHEbIOxXmFII-38">
          <mxGeometry width="160" relative="1" as="geometry">
            <mxPoint x="140" y="1065" as="sourcePoint" />
            <mxPoint x="316" y="1136" as="targetPoint" />
          </mxGeometry>
        </mxCell>
        <mxCell id="iz55yRVkYHEbIOxXmFII-56" value="" style="endArrow=open;endSize=12;dashed=1;html=1;rounded=0;entryX=0.061;entryY=0.524;entryDx=0;entryDy=0;entryPerimeter=0;exitX=1;exitY=0.5;exitDx=0;exitDy=0;" edge="1" parent="1" source="iz55yRVkYHEbIOxXmFII-36" target="iz55yRVkYHEbIOxXmFII-34">
          <mxGeometry width="160" relative="1" as="geometry">
            <mxPoint x="150" y="1090" as="sourcePoint" />
            <mxPoint x="332" y="1150" as="targetPoint" />
          </mxGeometry>
        </mxCell>
      </root>
    </mxGraphModel>
  </diagram>
</mxfile>
